<?xml version="1.0" encoding="UTF-8"?>
<svg width="22px" height="21px" viewBox="0 0 22 21" version="1.1" xmlns="http://www.w3.org/2000/svg" xmlns:xlink="http://www.w3.org/1999/xlink">
    <!-- Generator: Sketch 45.1 (43504) - http://www.bohemiancoding.com/sketch -->
    <title>LinkedIn</title>
    <desc>Created with Sketch.</desc>
    <defs></defs>
    <g id="Page-1" stroke="none" stroke-width="1" fill="none" fill-rule="evenodd">
        <g id="Home" transform="translate(-1004.000000, -820.000000)" fill-rule="nonzero" fill="#17EAD9">
            <g id="Hero" transform="translate(77.000000, 144.000000)">
                <g id="reaseaux-sociaux" transform="translate(700.000000, 670.000000)">
                    <g id="linkedin-logo" transform="translate(227.000000, 6.000000)">
                        <path d="M21.9549281,12.8723374 L21.9549281,20.9775728 L17.2492761,20.9775728 L17.2492761,13.4151772 C17.2492761,11.5154417 16.5686543,10.2189466 14.8653643,10.2189466 C13.5651183,10.2189466 12.7913411,11.0926893 12.4509281,11.9378883 C12.3267889,12.2400437 12.2948353,12.6606044 12.2948353,13.0835607 L12.2948353,20.9775728 L7.58760093,20.9775728 C7.58760093,20.9775728 7.65099768,8.1693568 7.58760093,6.8423301 L12.2943759,6.8423301 L12.2943759,8.84594417 C12.2848306,8.86092961 12.2724269,8.87708738 12.2634432,8.89161408 L12.2943759,8.89161408 L12.2943759,8.84594417 C12.9197169,7.88417476 14.0365104,6.51025485 16.5362413,6.51025485 C19.633239,6.51020388 21.9549281,8.53053641 21.9549281,12.8723374 Z M2.66363341,0.0284417476 C1.05329466,0.0284417476 0,1.08318204 0,2.47020146 C0,3.82699515 1.02282135,4.91374515 2.60115545,4.91374515 L2.63259861,4.91374515 C4.27412529,4.91374515 5.29500696,3.82719903 5.29500696,2.47020146 C5.26407425,1.08318204 4.27412529,0.0284417476 2.66363341,0.0284417476 Z M0.279568445,20.9775728 L4.98501624,20.9775728 L4.98501624,6.8423301 L0.279568445,6.8423301 L0.279568445,20.9775728 Z" id="LinkedIn"></path>
                    </g>
                </g>
            </g>
        </g>
    </g>
</svg>