<?xml version="1.0" encoding="UTF-8"?>
<svg width="27px" height="22px" viewBox="0 0 27 22" version="1.1" xmlns="http://www.w3.org/2000/svg" xmlns:xlink="http://www.w3.org/1999/xlink">
    <!-- Generator: Sketch 45.1 (43504) - http://www.bohemiancoding.com/sketch -->
    <title>Shape</title>
    <desc>Created with Sketch.</desc>
    <defs></defs>
    <g id="Page-1" stroke="none" stroke-width="1" fill="none" fill-rule="evenodd">
        <g id="Home" transform="translate(-947.000000, -820.000000)" fill-rule="nonzero" fill="#17EAD9">
            <g id="Hero" transform="translate(77.000000, 144.000000)">
                <g id="reaseaux-sociaux" transform="translate(700.000000, 670.000000)">
                    <g id="twitter-logo-silhouette" transform="translate(170.000000, 6.000000)">
                        <path d="M27,2.61782329 C26.00625,3.058751 24.9399706,3.35778313 23.8196471,3.49128514 C24.9635735,2.80535341 25.8392206,1.71736948 26.2542353,0.424935743 C25.1812059,1.06015261 23.9967794,1.52140161 22.73475,1.77144177 C21.7241471,0.691895582 20.2866618,0.0194819276 18.69225,0.0194819276 C15.6333971,0.0194819276 13.1532353,2.50296386 13.1532353,5.56423293 C13.1532353,5.99840161 13.2021618,6.42245382 13.2966618,6.82795181 C8.69404412,6.59646586 4.61276471,4.38838153 1.88122059,1.03311647 C1.40373529,1.85082731 1.13210294,2.80363052 1.13210294,3.82071084 C1.13210294,5.74500402 2.11067647,7.44289157 3.59541176,8.436249 C2.68769118,8.40585542 1.83397059,8.15581526 1.08657353,7.7402008 L1.08657353,7.80946988 C1.08657353,10.4956787 2.99647059,12.7375582 5.52891176,13.2477992 C5.06492647,13.3728193 4.57566176,13.4420884 4.0695,13.4420884 C3.71183824,13.4420884 3.36595588,13.4066145 3.02682353,13.3390241 C3.73204412,15.543751 5.77694118,17.147012 8.19975,17.1909679 C6.30502941,18.6776908 3.91597059,19.5612691 1.32110294,19.5612691 C0.874014706,19.5612691 0.433632353,19.5342329 4.41176471e-05,19.485241 C2.45152941,21.06151 5.36192647,21.9805622 8.48995588,21.9805622 C18.6788382,21.9805622 24.24825,13.5299558 24.24825,6.20117269 L24.2296765,5.48316867 C25.3178824,4.70596787 26.2593088,3.72948594 27,2.61782329 Z" id="Shape"></path>
                    </g>
                </g>
            </g>
        </g>
    </g>
</svg>