<?xml version="1.0" encoding="UTF-8"?>
<svg width="62px" height="62px" viewBox="0 0 62 62" version="1.1" xmlns="http://www.w3.org/2000/svg" xmlns:xlink="http://www.w3.org/1999/xlink">
    <!-- Generator: Sketch 45 (43475) - http://www.bohemiancoding.com/sketch -->
    <title>Group 2</title>
    <desc>Created with Sketch.</desc>
    <defs>
        <linearGradient x1="0%" y1="0%" x2="100%" y2="100%" id="linearGradient-1">
            <stop stop-color="#43E695" offset="0%"></stop>
            <stop stop-color="#3BB2B8" offset="100%"></stop>
        </linearGradient>
    </defs>
    <g id="Page-1" stroke="none" stroke-width="1" fill="none" fill-rule="evenodd">
        <g id="Home" transform="translate(-799.000000, -4080.000000)">
            <g id="How-it-works" transform="translate(1.000000, 3877.000000)">
                <g id="Group-2" transform="translate(799.000000, 204.000000)">
                    <circle id="Oval-3" stroke="url(#linearGradient-1)" stroke-width="2" fill="url(#linearGradient-1)" cx="30" cy="30" r="30"></circle>
                    <path d="M17.3,31 C17.1,30.8 17,30.5 17,30.3 C17,30.1 17.1,29.8 17.3,29.6 L18.7,28.2 C19.1,27.8 19.7,27.8 20.1,28.2 L20.2,28.3 L25.7,34.2 C25.9,34.4 26.2,34.4 26.4,34.2 L39.8,20.3 L39.9,20.3 C40.3,19.9 40.9,19.9 41.3,20.3 L42.7,21.7 C43.1,22.1 43.1,22.7 42.7,23.1 L26.7,39.7 C26.5,39.9 26.3,40 26,40 C25.7,40 25.5,39.9 25.3,39.7 L17.5,31.3 L17.3,31 Z" id="check" fill="#FFFFFF" fill-rule="nonzero"></path>
                </g>
            </g>
        </g>
    </g>
</svg>